# 3ds Max Wavefront OBJ Exporter v0.97b - (c)2007 guruware
# File Created: 31.12.2018 17:43:41

mtllib computer.mtl

#
# object Rectangle002
#

v  -3.2095 32.3063 -51.0476
v  -3.1360 32.3142 -51.0498
v  -3.0890 32.3300 -51.0542
v  -3.0470 32.3549 -51.0613
v  -3.0117 32.3879 -51.0707
v  -2.9849 32.4272 -51.0818
v  -2.9681 32.4711 -51.0942
v  -2.9596 32.5398 -51.1137
v  -2.9596 40.1065 -53.2566
v  -2.9681 40.1751 -53.2760
v  -2.9849 40.2191 -53.2885
v  -3.0117 40.2583 -53.2996
v  -3.0470 40.2913 -53.3089
v  -3.0890 40.3163 -53.3160
v  -3.1360 40.3320 -53.3205
v  -3.2095 40.3399 -53.3227
v  -16.5231 40.3399 -53.3227
v  -16.5966 40.3320 -53.3205
v  -16.6436 40.3163 -53.3160
v  -16.6856 40.2913 -53.3089
v  -16.7209 40.2583 -53.2996
v  -16.7476 40.2191 -53.2885
v  -16.7645 40.1751 -53.2760
v  -16.7730 40.1065 -53.2566
v  -16.7730 32.5398 -51.1137
v  -16.7645 32.4711 -51.0942
v  -16.7476 32.4272 -51.0818
v  -16.7209 32.3879 -51.0707
v  -16.6856 32.3549 -51.0613
v  -16.6436 32.3300 -51.0542
v  -16.5966 32.3142 -51.0498
v  -16.5231 32.3063 -51.0476
v  -9.8663 36.1925 -52.6464
v  -2.7965 31.5982 -51.1763
v  -2.9372 31.5826 -51.1719
v  -2.6673 31.6427 -51.1889
v  -2.5532 31.7125 -51.2087
v  -2.4581 31.8040 -51.2346
v  -2.3856 31.9138 -51.2657
v  -2.3393 32.0381 -51.3009
v  -2.3231 32.1735 -51.3392
v  -2.3231 40.3001 -53.6407
v  -2.3393 40.4355 -53.6791
v  -2.3856 40.5598 -53.7143
v  -2.4581 40.6695 -53.7453
v  -2.5532 40.7611 -53.7713
v  -2.6673 40.8309 -53.7910
v  -2.7965 40.8754 -53.8036
v  -2.9372 40.8910 -53.8081
v  -16.7954 40.8910 -53.8081
v  -16.9361 40.8754 -53.8036
v  -17.0653 40.8309 -53.7910
v  -17.1793 40.7611 -53.7713
v  -17.2745 40.6695 -53.7453
v  -17.3470 40.5598 -53.7143
v  -17.3933 40.4355 -53.6791
v  -17.4095 40.3001 -53.6407
v  -17.4095 32.1735 -51.3392
v  -17.3933 32.0381 -51.3009
v  -17.3470 31.9138 -51.2657
v  -17.2745 31.8040 -51.2346
v  -17.1793 31.7125 -51.2087
v  -17.0653 31.6427 -51.1889
v  -16.9361 31.5982 -51.1763
v  -16.7954 31.5826 -51.1719
v  -2.8712 31.6246 -50.8545
v  -2.7291 31.6403 -50.8589
v  -2.5987 31.6852 -50.8717
v  -2.4835 31.7557 -50.8916
v  -2.3875 31.8481 -50.9178
v  -2.3142 31.9589 -50.9492
v  -2.2676 32.0844 -50.9847
v  -2.2512 32.2211 -51.0234
v  -2.2512 40.4252 -53.3468
v  -2.2676 40.5618 -53.3856
v  -2.3142 40.6874 -53.4211
v  -2.3875 40.7981 -53.4525
v  -2.4835 40.8905 -53.4786
v  -2.5987 40.9610 -53.4986
v  -2.7291 41.0059 -53.5113
v  -2.8712 41.0217 -53.5158
v  -16.8614 41.0217 -53.5158
v  -17.0035 41.0059 -53.5113
v  -17.1339 40.9610 -53.4986
v  -17.2491 40.8905 -53.4786
v  -17.3451 40.7981 -53.4525
v  -17.4183 40.6874 -53.4211
v  -17.4650 40.5618 -53.3856
v  -17.4814 40.4252 -53.3468
v  -17.4814 32.2211 -51.0234
v  -17.4650 32.0844 -50.9847
v  -17.4183 31.9589 -50.9492
v  -17.3451 31.8481 -50.9178
v  -17.2491 31.7557 -50.8916
v  -17.1339 31.6852 -50.8717
v  -17.0035 31.6403 -50.8589
v  -16.8614 31.6246 -50.8545
# 97 vertices

vn 0.0000 0.2725 0.9622
vn 0.0000 -0.2725 -0.9622
vn 0.1283 -0.7963 -0.5911
vn 0.0288 -0.8148 -0.5790
vn 0.2531 -0.7364 -0.6274
vn 0.3572 -0.6593 -0.6616
vn 0.4429 -0.5683 -0.6935
vn 0.5119 -0.4635 -0.7233
vn 0.5633 -0.3438 -0.7513
vn 0.5743 -0.2511 -0.7792
vn 0.5743 -0.1948 -0.7951
vn 0.5633 -0.1012 -0.8200
vn 0.5119 0.0154 -0.8589
vn 0.4429 0.1202 -0.8885
vn 0.3572 0.2144 -0.9091
vn 0.2531 0.2981 -0.9204
vn 0.1283 0.3681 -0.9209
vn 0.0288 0.3903 -0.9203
vn -0.0288 0.3903 -0.9203
vn -0.1283 0.3681 -0.9209
vn -0.2531 0.2981 -0.9204
vn -0.3572 0.2144 -0.9091
vn -0.4429 0.1202 -0.8885
vn -0.5119 0.0154 -0.8589
vn -0.5633 -0.1012 -0.8200
vn -0.5743 -0.1948 -0.7951
vn -0.5743 -0.2511 -0.7792
vn -0.5633 -0.3438 -0.7513
vn -0.5119 -0.4635 -0.7233
vn -0.4429 -0.5683 -0.6935
vn -0.3572 -0.6593 -0.6616
vn -0.2531 -0.7364 -0.6274
vn -0.1283 -0.7963 -0.5911
vn -0.0288 -0.8148 -0.5790
vn 0.0558 -0.6141 0.7872
vn 0.2050 -0.6238 0.7542
vn 0.3822 -0.5788 0.7203
vn 0.5396 -0.4935 0.6821
vn 0.6707 -0.3738 0.6406
vn 0.7698 -0.2248 0.5974
vn 0.8305 -0.0522 0.5545
vn 0.8386 0.0960 0.5362
vn 0.8386 0.1994 0.5069
vn 0.8305 0.3352 0.4448
vn 0.7698 0.5046 0.3908
vn 0.6707 0.6542 0.3495
vn 0.5396 0.7779 0.3220
vn 0.3822 0.8706 0.3098
vn 0.2050 0.9267 0.3151
vn 0.0558 0.9357 0.3483
vn -0.0558 0.9357 0.3483
vn -0.2050 0.9267 0.3151
vn -0.3822 0.8706 0.3098
vn -0.5396 0.7779 0.3220
vn -0.6707 0.6542 0.3495
vn -0.7698 0.5046 0.3908
vn -0.8305 0.3352 0.4448
vn -0.8386 0.1994 0.5069
vn -0.8386 0.0960 0.5362
vn -0.8305 -0.0522 0.5545
vn -0.7698 -0.2248 0.5974
vn -0.6707 -0.3738 0.6406
vn -0.5396 -0.4935 0.6821
vn -0.3822 -0.5788 0.7203
vn -0.2050 -0.6238 0.7542
vn -0.0558 -0.6141 0.7872
# 66 vertex normals

vt 0.9097 0.5814 0.0000
vt 0.9142 0.5817 0.0000
vt 0.9171 0.5824 0.0000
vt 0.9197 0.5834 0.0000
vt 0.9218 0.5848 0.0000
vt 0.9235 0.5865 0.0000
vt 0.9245 0.5884 0.0000
vt 0.9250 0.5913 0.0000
vt 0.9250 0.9137 0.0000
vt 0.9245 0.9166 0.0000
vt 0.9235 0.9185 0.0000
vt 0.9218 0.9201 0.0000
vt 0.9197 0.9215 0.0000
vt 0.9171 0.9226 0.0000
vt 0.9142 0.9233 0.0000
vt 0.9097 0.9236 0.0000
vt 0.0952 0.9236 0.0000
vt 0.0907 0.9233 0.0000
vt 0.0878 0.9226 0.0000
vt 0.0852 0.9215 0.0000
vt 0.0831 0.9201 0.0000
vt 0.0814 0.9185 0.0000
vt 0.0804 0.9166 0.0000
vt 0.0799 0.9137 0.0000
vt 0.0799 0.5913 0.0000
vt 0.0804 0.5884 0.0000
vt 0.0814 0.5865 0.0000
vt 0.0831 0.5848 0.0000
vt 0.0852 0.5834 0.0000
vt 0.0878 0.5824 0.0000
vt 0.0907 0.5817 0.0000
vt 0.0952 0.5814 0.0000
vt 0.1320 0.4970 0.0000
vt 0.0904 0.4686 0.0000
vt 0.0912 0.4685 0.0000
vt 0.0897 0.4689 0.0000
vt 0.0890 0.4693 0.0000
vt 0.0884 0.4699 0.0000
vt 0.0880 0.4706 0.0000
vt 0.0877 0.4713 0.0000
vt 0.0876 0.4722 0.0000
vt 0.0876 0.5218 0.0000
vt 0.0877 0.5227 0.0000
vt 0.0880 0.5234 0.0000
vt 0.0884 0.5241 0.0000
vt 0.0890 0.5247 0.0000
vt 0.0897 0.5251 0.0000
vt 0.0904 0.5254 0.0000
vt 0.0912 0.5255 0.0000
vt 0.1728 0.5255 0.0000
vt 0.1736 0.5254 0.0000
vt 0.1743 0.5251 0.0000
vt 0.1750 0.5247 0.0000
vt 0.1756 0.5241 0.0000
vt 0.1760 0.5234 0.0000
vt 0.1763 0.5227 0.0000
vt 0.1764 0.5218 0.0000
vt 0.1764 0.4722 0.0000
vt 0.1763 0.4713 0.0000
vt 0.1760 0.4706 0.0000
vt 0.1756 0.4699 0.0000
vt 0.1750 0.4693 0.0000
vt 0.1743 0.4689 0.0000
vt 0.1736 0.4686 0.0000
vt 0.1728 0.4685 0.0000
vt 0.1897 0.4559 0.0000
vt 0.1908 0.4561 0.0000
vt 0.1875 0.4618 0.0000
vt 0.1869 0.4618 0.0000
vt 0.1919 0.4565 0.0000
vt 0.1879 0.4620 0.0000
vt 0.1929 0.4571 0.0000
vt 0.1882 0.4622 0.0000
vt 0.1937 0.4578 0.0000
vt 0.1885 0.4625 0.0000
vt 0.1943 0.4588 0.0000
vt 0.1887 0.4628 0.0000
vt 0.1946 0.4599 0.0000
vt 0.1889 0.4632 0.0000
vt 0.1948 0.4611 0.0000
vt 0.1889 0.4638 0.0000
vt 0.1948 0.5315 0.0000
vt 0.1889 0.5287 0.0000
vt 0.1946 0.5326 0.0000
vt 0.1889 0.5293 0.0000
vt 0.1943 0.5337 0.0000
vt 0.1887 0.5297 0.0000
vt 0.1937 0.5347 0.0000
vt 0.1885 0.5300 0.0000
vt 0.1929 0.5354 0.0000
vt 0.1882 0.5303 0.0000
vt 0.1919 0.5361 0.0000
vt 0.1879 0.5305 0.0000
vt 0.1908 0.5364 0.0000
vt 0.1875 0.5307 0.0000
vt 0.1897 0.5366 0.0000
vt 0.1869 0.5307 0.0000
vt 0.0742 0.5366 0.0000
vt 0.0769 0.5307 0.0000
vt 0.0730 0.5364 0.0000
vt 0.0763 0.5307 0.0000
vt 0.0719 0.5361 0.0000
vt 0.0759 0.5305 0.0000
vt 0.0709 0.5354 0.0000
vt 0.0756 0.5303 0.0000
vt 0.0702 0.5347 0.0000
vt 0.0753 0.5300 0.0000
vt 0.0696 0.5337 0.0000
vt 0.0751 0.5297 0.0000
vt 0.0692 0.5326 0.0000
vt 0.0750 0.5293 0.0000
vt 0.0690 0.5315 0.0000
vt 0.0749 0.5287 0.0000
vt 0.0690 0.4611 0.0000
vt 0.0749 0.4638 0.0000
vt 0.0692 0.4599 0.0000
vt 0.0750 0.4632 0.0000
vt 0.0696 0.4588 0.0000
vt 0.0751 0.4628 0.0000
vt 0.0702 0.4578 0.0000
vt 0.0753 0.4625 0.0000
vt 0.0709 0.4571 0.0000
vt 0.0756 0.4622 0.0000
vt 0.0719 0.4565 0.0000
vt 0.0759 0.4620 0.0000
vt 0.0730 0.4561 0.0000
vt 0.0763 0.4618 0.0000
vt 0.0742 0.4559 0.0000
vt 0.0769 0.4618 0.0000
vt 0.8407 0.7802 0.0000
vt 0.8418 0.7816 0.0000
vt 0.8396 0.7816 0.0000
vt 0.8386 0.7802 0.0000
vt 0.8427 0.7801 0.0000
vt 0.8437 0.7816 0.0000
vt 0.8444 0.7801 0.0000
vt 0.8455 0.7815 0.0000
vt 0.6216 0.7757 0.0000
vt 0.6215 0.7741 0.0000
vt 0.6236 0.7741 0.0000
vt 0.6237 0.7757 0.0000
vt 0.7602 0.7762 0.0000
vt 0.7608 0.7748 0.0000
vt 0.7625 0.7748 0.0000
vt 0.7619 0.7762 0.0000
vt 0.7582 0.7763 0.0000
vt 0.7588 0.7748 0.0000
vt 0.7561 0.7763 0.0000
vt 0.7566 0.7749 0.0000
vt 0.6281 0.7778 0.0000
vt 0.6274 0.7763 0.0000
vt 0.6259 0.7778 0.0000
vt 0.6253 0.7763 0.0000
vt 0.6240 0.7778 0.0000
vt 0.6233 0.7764 0.0000
vt 0.6223 0.7778 0.0000
vt 0.6216 0.7764 0.0000
vt 0.6215 0.7716 0.0000
vt 0.6217 0.7700 0.0000
vt 0.6237 0.7700 0.0000
vt 0.6235 0.7715 0.0000
vt 0.6244 0.7805 0.0000
vt 0.6234 0.7820 0.0000
vt 0.6217 0.7820 0.0000
vt 0.6227 0.7806 0.0000
vt 0.6264 0.7805 0.0000
vt 0.6254 0.7820 0.0000
vt 0.6285 0.7805 0.0000
vt 0.6276 0.7819 0.0000
vt 0.8385 0.7781 0.0000
vt 0.8396 0.7795 0.0000
vt 0.8407 0.7781 0.0000
vt 0.8417 0.7795 0.0000
vt 0.8426 0.7781 0.0000
vt 0.8437 0.7795 0.0000
vt 0.8443 0.7780 0.0000
vt 0.8454 0.7795 0.0000
vt 0.7686 0.7827 0.0000
vt 0.7716 0.7827 0.0000
vt 0.7715 0.7837 0.0000
vt 0.7685 0.7838 0.0000
vt 0.7602 0.7783 0.0000
vt 0.7608 0.7769 0.0000
vt 0.7626 0.7769 0.0000
vt 0.7619 0.7783 0.0000
vt 0.7582 0.7784 0.0000
vt 0.7588 0.7769 0.0000
vt 0.7561 0.7784 0.0000
vt 0.7567 0.7769 0.0000
vt 0.6281 0.7798 0.0000
vt 0.6275 0.7784 0.0000
vt 0.6260 0.7799 0.0000
vt 0.6253 0.7784 0.0000
vt 0.6240 0.7799 0.0000
vt 0.6233 0.7785 0.0000
vt 0.6223 0.7799 0.0000
vt 0.6216 0.7785 0.0000
vt 0.6215 0.7736 0.0000
vt 0.6217 0.7721 0.0000
vt 0.6238 0.7721 0.0000
vt 0.6235 0.7736 0.0000
vt 0.6245 0.7826 0.0000
vt 0.6235 0.7841 0.0000
vt 0.6217 0.7841 0.0000
vt 0.6227 0.7826 0.0000
vt 0.6264 0.7826 0.0000
vt 0.6254 0.7840 0.0000
vt 0.6286 0.7826 0.0000
vt 0.6276 0.7840 0.0000
# 209 texture coords

o Rectangle002
g Rectangle002
usemtl 02___Default
s 1
f 1/1/1 2/2/1 3/3/1 4/4/1 5/5/1 6/6/1 7/7/1 8/8/1 9/9/1 10/10/1 11/11/1 12/12/1 13/13/1 14/14/1 15/15/1 16/16/1 17/17/1 18/18/1 19/19/1 20/20/1 21/21/1 22/22/1 23/23/1 24/24/1 25/25/1 26/26/1 27/27/1 28/28/1 29/29/1 30/30/1 31/31/1 32/32/1 
s off
f 33/33/2 34/34/3 35/35/4 
f 33/33/2 36/36/5 34/34/3 
f 33/33/2 37/37/6 36/36/5 
f 33/33/2 38/38/7 37/37/6 
f 33/33/2 39/39/8 38/38/7 
f 33/33/2 40/40/9 39/39/8 
f 33/33/2 41/41/10 40/40/9 
f 33/33/2 42/42/11 41/41/10 
f 33/33/2 43/43/12 42/42/11 
f 33/33/2 44/44/13 43/43/12 
f 33/33/2 45/45/14 44/44/13 
f 33/33/2 46/46/15 45/45/14 
f 33/33/2 47/47/16 46/46/15 
f 33/33/2 48/48/17 47/47/16 
f 33/33/2 49/49/18 48/48/17 
f 33/33/2 50/50/19 49/49/18 
f 33/33/2 51/51/20 50/50/19 
f 33/33/2 52/52/21 51/51/20 
f 33/33/2 53/53/22 52/52/21 
f 33/33/2 54/54/23 53/53/22 
f 33/33/2 55/55/24 54/54/23 
f 33/33/2 56/56/25 55/55/24 
f 33/33/2 57/57/26 56/56/25 
f 33/33/2 58/58/27 57/57/26 
f 33/33/2 59/59/28 58/58/27 
f 33/33/2 60/60/29 59/59/28 
f 33/33/2 61/61/30 60/60/29 
f 33/33/2 62/62/31 61/61/30 
f 33/33/2 63/63/32 62/62/31 
f 33/33/2 64/64/33 63/63/32 
f 33/33/2 65/65/34 64/64/33 
f 33/33/2 35/35/4 65/65/34 
f 66/66/35 67/67/36 2/68/1 1/69/1 
f 67/67/36 68/70/37 3/71/1 2/68/1 
f 68/70/37 69/72/38 4/73/1 3/71/1 
f 69/72/38 70/74/39 5/75/1 4/73/1 
f 70/74/39 71/76/40 6/77/1 5/75/1 
f 71/76/40 72/78/41 7/79/1 6/77/1 
f 72/78/41 73/80/42 8/81/1 7/79/1 
f 73/80/42 74/82/43 9/83/1 8/81/1 
f 74/82/43 75/84/44 10/85/1 9/83/1 
f 75/84/44 76/86/45 11/87/1 10/85/1 
f 76/86/45 77/88/46 12/89/1 11/87/1 
f 77/88/46 78/90/47 13/91/1 12/89/1 
f 78/90/47 79/92/48 14/93/1 13/91/1 
f 79/92/48 80/94/49 15/95/1 14/93/1 
f 80/94/49 81/96/50 16/97/1 15/95/1 
f 81/96/50 82/98/51 17/99/1 16/97/1 
f 82/98/51 83/100/52 18/101/1 17/99/1 
f 83/100/52 84/102/53 19/103/1 18/101/1 
f 84/102/53 85/104/54 20/105/1 19/103/1 
f 85/104/54 86/106/55 21/107/1 20/105/1 
f 86/106/55 87/108/56 22/109/1 21/107/1 
f 87/108/56 88/110/57 23/111/1 22/109/1 
f 88/110/57 89/112/58 24/113/1 23/111/1 
f 89/112/58 90/114/59 25/115/1 24/113/1 
f 90/114/59 91/116/60 26/117/1 25/115/1 
f 91/116/60 92/118/61 27/119/1 26/117/1 
f 92/118/61 93/120/62 28/121/1 27/119/1 
f 93/120/62 94/122/63 29/123/1 28/121/1 
f 94/122/63 95/124/64 30/125/1 29/123/1 
f 95/124/64 96/126/65 31/127/1 30/125/1 
f 96/126/65 97/128/66 32/129/1 31/127/1 
f 97/128/66 66/66/35 1/69/1 32/129/1 
f 34/130/3 67/131/36 66/132/35 35/133/4 
f 36/134/5 68/135/37 67/131/36 34/130/3 
f 37/136/6 69/137/38 68/135/37 36/134/5 
f 38/138/7 70/139/39 69/140/38 37/141/6 
f 39/142/8 71/143/40 70/144/39 38/145/7 
f 40/146/9 72/147/41 71/143/40 39/142/8 
f 41/148/10 73/149/42 72/147/41 40/146/9 
f 42/150/11 74/151/43 73/149/42 41/148/10 
f 43/152/12 75/153/44 74/151/43 42/150/11 
f 44/154/13 76/155/45 75/153/44 43/152/12 
f 45/156/14 77/157/46 76/155/45 44/154/13 
f 46/158/15 78/159/47 77/160/46 45/161/14 
f 47/162/16 79/163/48 78/164/47 46/165/15 
f 48/166/17 80/167/49 79/163/48 47/162/16 
f 49/168/18 81/169/50 80/167/49 48/166/17 
f 50/170/19 82/171/51 81/169/50 49/168/18 
f 51/172/20 83/173/52 82/171/51 50/170/19 
f 52/174/21 84/175/53 83/173/52 51/172/20 
f 53/176/22 85/177/54 84/175/53 52/174/21 
f 54/178/23 86/179/55 85/180/54 53/181/22 
f 55/182/24 87/183/56 86/184/55 54/185/23 
f 56/186/25 88/187/57 87/183/56 55/182/24 
f 57/188/26 89/189/58 88/187/57 56/186/25 
f 58/190/27 90/191/59 89/189/58 57/188/26 
f 59/192/28 91/193/60 90/191/59 58/190/27 
f 60/194/29 92/195/61 91/193/60 59/192/28 
f 61/196/30 93/197/62 92/195/61 60/194/29 
f 62/198/31 94/199/63 93/200/62 61/201/30 
f 63/202/32 95/203/64 94/204/63 62/205/31 
f 64/206/33 96/207/65 95/203/64 63/202/32 
f 65/208/34 97/209/66 96/207/65 64/206/33 
f 35/133/4 66/132/35 97/209/66 65/208/34 
# 65 polygons - 32 triangles

#
# object Rectangle001
#

v  -2.8712 31.6326 -41.0797
v  -2.7291 31.6326 -41.0961
v  -2.5987 31.6326 -41.1428
v  -2.4835 31.6326 -41.2160
v  -2.3875 31.6326 -41.3120
v  -2.3143 31.6326 -41.4272
v  -2.2676 31.6326 -41.5576
v  -2.2512 31.6326 -41.6997
v  -2.2512 31.6326 -50.2264
v  -2.2676 31.6326 -50.3685
v  -2.3143 31.6326 -50.4989
v  -2.3875 31.6326 -50.6141
v  -2.4835 31.6326 -50.7101
v  -2.5987 31.6326 -50.7833
v  -2.7291 31.6326 -50.8300
v  -2.8712 31.6326 -50.8464
v  -16.8614 31.6326 -50.8464
v  -17.0035 31.6326 -50.8300
v  -17.1339 31.6326 -50.7833
v  -17.2491 31.6326 -50.7101
v  -17.3451 31.6326 -50.6141
v  -17.4183 31.6326 -50.4989
v  -17.4650 31.6326 -50.3685
v  -17.4814 31.6326 -50.2264
v  -17.4814 31.6326 -41.6997
v  -17.4650 31.6326 -41.5576
v  -17.4183 31.6326 -41.4272
v  -17.3451 31.6326 -41.3120
v  -17.2491 31.6326 -41.2160
v  -17.1339 31.6326 -41.1428
v  -17.0035 31.6326 -41.0961
v  -16.8614 31.6326 -41.0797
v  -3.0033 31.0620 -41.1719
v  -2.8639 31.0620 -41.1880
v  -2.7359 31.0620 -41.2338
v  -2.6230 31.0620 -41.3057
v  -2.5287 31.0620 -41.3999
v  -2.4569 31.0620 -41.5128
v  -2.4111 31.0620 -41.6408
v  -2.3950 31.0620 -41.7802
v  -2.3950 31.0620 -50.1459
v  -2.4111 31.0620 -50.2853
v  -2.4569 31.0620 -50.4133
v  -2.5287 31.0620 -50.5262
v  -2.6230 31.0620 -50.6204
v  -2.7359 31.0620 -50.6923
v  -2.8639 31.0620 -50.7381
v  -3.0033 31.0620 -50.7542
v  -16.7293 31.0620 -50.7542
v  -16.8687 31.0620 -50.7381
v  -16.9967 31.0620 -50.6923
v  -17.1096 31.0620 -50.6204
v  -17.2039 31.0620 -50.5262
v  -17.2757 31.0620 -50.4133
v  -17.3215 31.0620 -50.2853
v  -17.3376 31.0620 -50.1459
v  -17.3376 31.0620 -41.7802
v  -17.3215 31.0620 -41.6408
v  -17.2757 31.0620 -41.5128
v  -17.2039 31.0620 -41.3999
v  -17.1096 31.0620 -41.3057
v  -16.9967 31.0620 -41.2338
v  -16.8687 31.0620 -41.1880
v  -16.7293 31.0620 -41.1719
# 64 vertices

vn 0.0573 0.5785 0.8137
vn 0.2087 0.5419 0.8141
vn 0.3875 0.5198 0.7613
vn 0.5465 0.5051 0.6680
vn 0.6787 0.4973 0.5403
vn 0.7788 0.4963 0.3837
vn 0.8400 0.5026 0.2042
vn 0.8487 0.5261 0.0549
vn 0.8487 0.5261 -0.0549
vn 0.8400 0.5026 -0.2042
vn 0.7788 0.4963 -0.3837
vn 0.6787 0.4973 -0.5403
vn 0.5465 0.5051 -0.6680
vn 0.3875 0.5198 -0.7613
vn 0.2087 0.5419 -0.8141
vn 0.0573 0.5785 -0.8137
vn -0.0573 0.5785 -0.8137
vn -0.2087 0.5419 -0.8141
vn -0.3875 0.5198 -0.7613
vn -0.5465 0.5051 -0.6680
vn -0.6787 0.4973 -0.5403
vn -0.7788 0.4963 -0.3837
vn -0.8400 0.5026 -0.2042
vn -0.8487 0.5261 -0.0549
vn -0.8487 0.5261 0.0549
vn -0.8400 0.5026 0.2042
vn -0.7788 0.4963 0.3837
vn -0.6787 0.4973 0.5403
vn -0.5465 0.5051 0.6680
vn -0.3875 0.5198 0.7613
vn -0.2087 0.5419 0.8141
vn -0.0573 0.5785 0.8137
vn 0.0422 -0.2898 0.9562
vn 0.1922 -0.3414 0.9201
vn 0.3890 -0.3987 0.8305
vn 0.5557 -0.4357 0.7081
vn 0.6927 -0.4544 0.5601
vn 0.8006 -0.4559 0.3889
vn 0.8769 -0.4392 0.1952
vn 0.9086 -0.4152 0.0454
vn 0.9086 -0.4152 -0.0454
vn 0.8769 -0.4392 -0.1952
vn 0.8006 -0.4559 -0.3889
vn 0.6927 -0.4544 -0.5601
vn 0.5557 -0.4357 -0.7081
vn 0.3890 -0.3987 -0.8305
vn 0.1922 -0.3414 -0.9201
vn 0.0422 -0.2898 -0.9562
vn -0.0422 -0.2898 -0.9562
vn -0.1922 -0.3414 -0.9201
vn -0.3890 -0.3987 -0.8305
vn -0.5557 -0.4357 -0.7081
vn -0.6927 -0.4544 -0.5601
vn -0.8006 -0.4559 -0.3889
vn -0.8769 -0.4392 -0.1952
vn -0.9086 -0.4152 -0.0454
vn -0.9086 -0.4152 0.0454
vn -0.8769 -0.4392 0.1952
vn -0.8006 -0.4559 0.3889
vn -0.6927 -0.4544 0.5601
vn -0.5557 -0.4357 0.7081
vn -0.3890 -0.3987 0.8305
vn -0.1922 -0.3414 0.9201
vn -0.0422 -0.2898 0.9562
# 64 vertex normals

vt 0.9153 0.0448 0.0000
vt 0.9236 0.0455 0.0000
vt 0.9313 0.0475 0.0000
vt 0.9380 0.0506 0.0000
vt 0.9436 0.0547 0.0000
vt 0.9479 0.0596 0.0000
vt 0.9506 0.0652 0.0000
vt 0.9515 0.0713 0.0000
vt 0.9515 0.4358 0.0000
vt 0.9506 0.4418 0.0000
vt 0.9479 0.4474 0.0000
vt 0.9436 0.4523 0.0000
vt 0.9380 0.4564 0.0000
vt 0.9313 0.4596 0.0000
vt 0.9236 0.4616 0.0000
vt 0.9153 0.4623 0.0000
vt 0.0987 0.4623 0.0000
vt 0.0904 0.4616 0.0000
vt 0.0828 0.4596 0.0000
vt 0.0761 0.4564 0.0000
vt 0.0705 0.4523 0.0000
vt 0.0662 0.4474 0.0000
vt 0.0635 0.4418 0.0000
vt 0.0625 0.4358 0.0000
vt 0.0625 0.0713 0.0000
vt 0.0635 0.0652 0.0000
vt 0.0662 0.0596 0.0000
vt 0.0705 0.0547 0.0000
vt 0.0761 0.0506 0.0000
vt 0.0828 0.0475 0.0000
vt 0.0904 0.0455 0.0000
vt 0.0987 0.0448 0.0000
vt 0.6199 0.7439 0.0000
vt 0.6175 0.7439 0.0000
vt 0.6152 0.7384 0.0000
vt 0.6176 0.7384 0.0000
vt 0.6153 0.7439 0.0000
vt 0.6130 0.7384 0.0000
vt 0.6134 0.7439 0.0000
vt 0.6110 0.7384 0.0000
vt 0.6185 0.7614 0.0000
vt 0.6183 0.7637 0.0000
vt 0.6121 0.7639 0.0000
vt 0.6123 0.7616 0.0000
vt 0.7681 0.7571 0.0000
vt 0.7662 0.7571 0.0000
vt 0.7677 0.7515 0.0000
vt 0.7696 0.7515 0.0000
vt 0.7640 0.7571 0.0000
vt 0.7655 0.7515 0.0000
vt 0.7617 0.7571 0.0000
vt 0.7630 0.7515 0.0000
vt 0.6190 0.7571 0.0000
vt 0.6176 0.7515 0.0000
vt 0.6166 0.7571 0.0000
vt 0.6152 0.7515 0.0000
vt 0.6144 0.7571 0.0000
vt 0.6130 0.7515 0.0000
vt 0.6125 0.7571 0.0000
vt 0.6110 0.7515 0.0000
vt 0.6210 0.7665 0.0000
vt 0.6187 0.7665 0.0000
vt 0.6193 0.7603 0.0000
vt 0.6216 0.7603 0.0000
vt 0.8604 0.7373 0.0000
vt 0.8585 0.7373 0.0000
vt 0.8609 0.7318 0.0000
vt 0.8628 0.7318 0.0000
vt 0.8563 0.7373 0.0000
vt 0.8586 0.7318 0.0000
vt 0.8540 0.7373 0.0000
vt 0.8562 0.7318 0.0000
vt 0.6199 0.7373 0.0000
vt 0.6176 0.7318 0.0000
vt 0.6175 0.7373 0.0000
vt 0.6152 0.7318 0.0000
vt 0.6153 0.7373 0.0000
vt 0.6130 0.7318 0.0000
vt 0.6134 0.7373 0.0000
vt 0.6110 0.7318 0.0000
vt 0.6185 0.7581 0.0000
vt 0.6183 0.7604 0.0000
vt 0.6121 0.7606 0.0000
vt 0.6123 0.7583 0.0000
vt 0.7681 0.7505 0.0000
vt 0.7662 0.7505 0.0000
vt 0.7677 0.7450 0.0000
vt 0.7696 0.7450 0.0000
vt 0.7640 0.7505 0.0000
vt 0.7655 0.7450 0.0000
vt 0.7617 0.7505 0.0000
vt 0.7630 0.7450 0.0000
vt 0.6190 0.7505 0.0000
vt 0.6176 0.7450 0.0000
vt 0.6166 0.7505 0.0000
vt 0.6152 0.7450 0.0000
vt 0.6144 0.7505 0.0000
vt 0.6130 0.7450 0.0000
vt 0.6125 0.7505 0.0000
vt 0.6110 0.7450 0.0000
vt 0.6121 0.7670 0.0000
vt 0.6121 0.7647 0.0000
vt 0.6183 0.7653 0.0000
vt 0.6183 0.7676 0.0000
vt 0.8604 0.7439 0.0000
vt 0.8585 0.7439 0.0000
vt 0.8609 0.7384 0.0000
vt 0.8628 0.7384 0.0000
vt 0.8563 0.7439 0.0000
vt 0.8586 0.7384 0.0000
vt 0.8540 0.7439 0.0000
vt 0.8562 0.7384 0.0000
# 112 texture coords

o Rectangle001
g Rectangle001
usemtl 02___Default
s 1
f 98/210/67 99/211/68 100/212/69 101/213/70 102/214/71 103/215/72 104/216/73 105/217/74 106/218/75 107/219/76 108/220/77 109/221/78 110/222/79 111/223/80 112/224/81 113/225/82 114/226/83 115/227/84 116/228/85 117/229/86 118/230/87 119/231/88 120/232/89 121/233/90 122/234/91 123/235/92 124/236/93 125/237/94 126/238/95 127/239/96 128/240/97 129/241/98 
s off
f 130/242/99 131/243/100 99/244/68 98/245/67 
f 131/243/100 132/246/101 100/247/69 99/244/68 
f 132/246/101 133/248/102 101/249/70 100/247/69 
f 133/250/102 134/251/103 102/252/71 101/253/70 
f 134/254/103 135/255/104 103/256/72 102/257/71 
f 135/255/104 136/258/105 104/259/73 103/256/72 
f 136/258/105 137/260/106 105/261/74 104/259/73 
f 137/260/106 138/262/107 106/263/75 105/261/74 
f 138/262/107 139/264/108 107/265/76 106/263/75 
f 139/264/108 140/266/109 108/267/77 107/265/76 
f 140/266/109 141/268/110 109/269/78 108/267/77 
f 141/270/110 142/271/111 110/272/79 109/273/78 
f 142/274/111 143/275/112 111/276/80 110/277/79 
f 143/275/112 144/278/113 112/279/81 111/276/80 
f 144/278/113 145/280/114 113/281/82 112/279/81 
f 145/280/114 146/282/115 114/283/83 113/281/82 
f 146/282/115 147/284/116 115/285/84 114/283/83 
f 147/284/116 148/286/117 116/287/85 115/285/84 
f 148/286/117 149/288/118 117/289/86 116/287/85 
f 149/290/118 150/291/119 118/292/87 117/293/86 
f 150/294/119 151/295/120 119/296/88 118/297/87 
f 151/295/120 152/298/121 120/299/89 119/296/88 
f 152/298/121 153/300/122 121/301/90 120/299/89 
f 153/300/122 154/302/123 122/303/91 121/301/90 
f 154/302/123 155/304/124 123/305/92 122/303/91 
f 155/304/124 156/306/125 124/307/93 123/305/92 
f 156/306/125 157/308/126 125/309/94 124/307/93 
f 157/310/126 158/311/127 126/312/95 125/313/94 
f 158/314/127 159/315/128 127/316/96 126/317/95 
f 159/315/128 160/318/129 128/319/97 127/316/96 
f 160/318/129 161/320/130 129/321/98 128/319/97 
f 161/320/130 130/242/99 98/245/67 129/321/98 
# 33 polygons

