# 3ds Max Wavefront OBJ Exporter v0.97b - (c)2007 guruware
# File Created: 31.12.2018 17:44:05

mtllib photos.mtl

#
# object Plane004
#

v  -31.0891 74.8549 -64.9498
v  -33.6411 68.6888 -64.9498
v  -28.3607 66.5034 -64.9498
v  -25.8087 72.6695 -64.9498
# 4 vertices

vn -0.0000 -0.0000 1.0000
# 1 vertex normals

vt 0.0387 0.9180 0.0000
vt 0.0387 0.4738 0.0000
vt 0.3173 0.4738 0.0000
vt 0.3173 0.9180 0.0000
# 4 texture coords

o Plane004
g Plane004
usemtl 03___Default
s 1
f 1/1/1 2/2/1 3/3/1 4/4/1 
# 1 polygons

#
# object Plane003
#

v  -20.3510 70.1779 -64.9498
v  -21.5947 63.6214 -64.9498
v  -15.9800 62.5564 -64.9498
v  -14.7364 69.1129 -64.9498
# 4 vertices

vn -0.0000 -0.0000 1.0000
# 1 vertex normals

vt 0.3523 0.4920 0.0000
vt 0.3523 0.0436 0.0000
vt 0.6453 0.0436 0.0000
vt 0.6453 0.4920 0.0000
# 4 texture coords

o Plane003
g Plane003
usemtl 03___Default
s 1
f 5/5/2 6/6/2 7/7/2 8/8/2 
# 1 polygons

#
# object Plane002
#

v  -6.1311 68.3532 -64.9498
v  -6.1311 61.6799 -64.9498
v  -0.4164 61.6799 -64.9498
v  -0.4164 68.3532 -64.9498
# 4 vertices

vn 0.0000 -0.0000 1.0000
# 1 vertex normals

vt 0.3570 0.9308 0.0000
vt 0.3570 0.4902 0.0000
vt 0.6389 0.4902 0.0000
vt 0.6389 0.9308 0.0000
# 4 texture coords

o Plane002
g Plane002
usemtl 03___Default
s 1
f 9/9/3 10/10/3 11/11/3 12/12/3 
# 1 polygons

#
# object Plane005
#

v  8.2984 69.1186 -64.9498
v  9.5420 62.5621 -64.9498
v  15.1566 63.6271 -64.9498
v  13.9130 70.1836 -64.9498
# 4 vertices

vn 0.0000 -0.0000 1.0000
# 1 vertex normals

vt 0.6781 0.4988 0.0000
vt 0.6781 0.0479 0.0000
vt 0.9578 0.0479 0.0000
vt 0.9578 0.4988 0.0000
# 4 texture coords

o Plane005
g Plane005
usemtl 03___Default
s 1
f 13/13/4 14/14/4 15/15/4 16/16/4 
# 1 polygons

#
# object Plane006
#

v  19.8462 72.8922 -64.9498
v  22.3982 66.7260 -64.9498
v  27.6786 68.9114 -64.9498
v  25.1266 75.0775 -64.9498
# 4 vertices

vn 0.0000 -0.0000 1.0000
# 1 vertex normals

vt 0.0351 0.5016 0.0000
vt 0.0351 0.0500 0.0000
vt 0.3211 0.0500 0.0000
vt 0.3211 0.5016 0.0000
# 4 texture coords

o Plane006
g Plane006
usemtl 03___Default
s 1
f 17/17/5 18/18/5 19/19/5 20/20/5 
# 1 polygons

